<svg preserveAspectRatio="xMidYMid meet" width="151.959" height="130.913" overflow="visible" style="display: block;" viewBox="0 0 151.959 130.913" fill="none" xmlns="http://www.w3.org/2000/svg">
<g id="Belinha">
<path id="Vector" d="M100.455 50.2036C124.674 43.9866 131.969 12.7416 131.969 12.7416C131.969 12.7416 133.747 4.39458 134.318 2.74858C134.318 2.74858 135.558 -2.68942 139.007 1.73258C139.007 1.73258 143.868 9.63058 139.347 20.6196C139.347 20.6196 146.384 10.9306 146.832 9.36558C146.832 9.36558 149.749 4.97158 151.084 9.23758C151.084 9.23758 155.684 21.0106 143.795 33.4436C143.795 33.4436 146.336 32.8596 147.967 31.2186C147.967 31.2186 152.84 29.0936 151.611 35.8296C151.611 35.8296 150.927 44.8536 138.926 53.4506C138.926 53.4506 135.221 56.4526 134.493 56.7926C134.493 56.7926 137.9 56.0236 139.963 54.5566C139.963 54.5566 142.583 52.6496 143.626 54.9226C143.626 54.9226 143.866 57.7966 138.235 63.2076C138.235 63.2076 115.251 87.6206 93.4107 84.1286C93.4107 84.1286 80.8027 82.0156 85.2277 63.2976C85.2277 63.2976 90.0307 49.9556 100.455 50.2036Z" fill="var(--fill-0, #003B3E)"/>
<path id="Vector_2" d="M51.5044 50.2036C27.2854 43.9866 19.9904 12.7416 19.9904 12.7416C19.9904 12.7416 18.2124 4.39458 17.6414 2.74858C17.6414 2.74858 16.4014 -2.68942 12.9524 1.73258C12.9524 1.73258 8.09143 9.63058 12.6124 20.6196C12.6124 20.6196 5.57543 10.9306 5.12743 9.36558C5.12743 9.36558 2.21143 4.97158 0.87543 9.23758C0.87543 9.23758 -3.72457 21.0106 8.16443 33.4436C8.16443 33.4436 5.62343 32.8596 3.99243 31.2186C3.99243 31.2186 -0.880578 29.0936 0.348422 35.8296C0.348422 35.8296 1.03243 44.8536 13.0334 53.4506C13.0334 53.4506 16.7384 56.4526 17.4664 56.7926C17.4664 56.7926 14.0594 56.0236 11.9964 54.5566C11.9964 54.5566 9.37642 52.6496 8.33342 54.9226C8.33342 54.9226 8.09343 57.7966 13.7244 63.2076C13.7244 63.2076 36.7084 87.6206 58.5484 84.1286C58.5484 84.1286 71.1564 82.0156 66.7314 63.2976C66.7314 63.2976 61.9284 49.9556 51.5044 50.2036Z" fill="var(--fill-0, #003B3E)"/>
<path id="Vector_3" d="M83.8483 117.506C79.6373 115.138 64.7013 119.48 64.5043 119.414C64.3723 118.032 64.7013 115.532 64.7013 115.532C64.5693 112.637 63.8463 110.729 63.8463 110.729C59.9643 102.044 57.5293 79.6727 57.5293 79.6727C57.5293 79.6727 61.6093 48.0907 88.1913 64.5397C88.1913 64.5397 96.5473 74.6727 95.6253 88.6207C95.6253 88.6207 94.8843 101.189 91.5463 110.268C91.5463 110.268 90.3893 112.47 90.5223 115.606C90.5223 115.606 90.4763 117.543 89.6723 119.263C89.6723 119.263 87.4673 120.796 83.8483 117.506Z" fill="var(--fill-0, #003B3E)"/>
<path id="Vector_4" d="M51.9895 50.2022H51.6645C45.8305 64.6472 38.8335 76.1542 36.4805 79.9032C43.3085 83.2052 50.9965 85.3352 58.5495 84.1282C58.5495 84.1282 71.1565 82.0152 66.7315 63.2972C66.7315 63.2972 62.0775 50.3692 51.9895 50.2022Z" fill="var(--fill-0, #007B7B)"/>
<path id="Vector_5" d="M50.7632 51.7598L34.9962 79.0698C34.6542 79.6628 34.8572 80.4198 35.4492 80.7618C36.0412 81.1038 36.7982 80.9008 37.1402 80.3078L52.9082 52.9978C53.2502 52.4058 53.0472 51.6488 52.4552 51.3068C51.8632 50.9648 51.1052 51.1678 50.7632 51.7598Z" fill="var(--fill-0, #005E5B)"/>
<path id="Vector_6" d="M64.1347 120.133C63.8557 120.133 58.4587 122.785 57.3887 125.856C57.3887 125.856 56.4117 128.414 57.5287 129.95C57.5287 129.95 58.5817 130.876 59.1407 129.675C59.1407 129.675 59.2887 129.33 59.3207 128.606C59.3207 128.606 59.3377 127.931 59.6827 127.619C59.6827 127.619 59.3867 129.592 59.7987 130.317C59.7987 130.317 60.6367 131.566 61.9037 130.448C61.9037 130.448 62.6107 129.905 62.7597 129.313C62.7597 129.313 63.1377 130.974 64.1737 130.662C64.1737 130.662 65.2597 130.662 65.7357 128.227C65.7357 128.227 67.1817 123.39 66.3447 121.227C66.3447 121.227 66.4847 119.435 64.1347 120.133Z" fill="var(--fill-0, #E29524)"/>
<path id="Vector_7" d="M87.4605 122.335C87.4605 122.335 87.2955 123.355 88.0195 124.802C88.0195 124.802 88.8425 126.973 88.8425 127.664C88.8425 127.664 89.0395 129.671 89.9605 130C89.9605 130 91.3425 131.02 91.9015 128.947C91.9015 128.947 93.5465 130.79 94.8955 128.915C94.8955 128.915 96.7705 130.296 97.5605 129.079C97.5605 129.079 98.2835 127.796 97.6255 125.987C97.6255 125.987 97.0665 124.243 95.0275 123.158C95.0275 123.158 91.2435 121.315 90.7825 121.118C90.7825 121.118 89.6315 120.657 88.7765 120.723C87.7565 120.723 87.4605 122.335 87.4605 122.335Z" fill="var(--fill-0, #E29524)"/>
<path id="Vector_8" d="M99.9708 50.2022H100.295C106.13 64.6472 113.126 76.1542 115.48 79.9032C108.652 83.2052 100.963 85.3352 93.4108 84.1282C93.4108 84.1282 80.8037 82.0152 85.2287 63.2972C85.2287 63.2972 89.8828 50.3692 99.9708 50.2022Z" fill="var(--fill-0, #007B7B)"/>
<path id="Vector_9" d="M100.594 51.7598L116.362 79.0698C116.704 79.6628 116.501 80.4198 115.909 80.7618C115.316 81.1038 114.559 80.9008 114.217 80.3088L98.4503 52.9978C98.1083 52.4058 98.3113 51.6488 98.9033 51.3068C99.4953 50.9648 100.252 51.1678 100.594 51.7598Z" fill="var(--fill-0, #005E5B)"/>
<path id="Vector_10" d="M63.5683 76.2276C63.5683 76.2276 65.0163 98.5986 66.8583 108.995C66.8583 108.995 67.6693 113.359 65.3893 117.266C65.3893 117.266 64.3253 119.621 64.1283 119.95C64.1283 119.95 63.5683 121.397 64.4243 121.923C64.5553 121.99 65.3123 122.68 66.6283 121.496C66.6283 121.496 70.0493 119.193 73.5693 119.028C73.5693 119.028 79.2943 118.338 81.5303 119.292C81.5303 119.292 84.5583 120.18 87.2223 122.318C87.2223 122.318 88.6753 123.222 89.6053 122.733C89.6053 122.733 90.5363 122.524 90.2563 121.407C90.2343 121.338 89.1633 117.871 89.1173 115.266C89.1173 115.266 88.5583 110.94 89.0703 108.52C89.0703 108.52 91.2683 86.6236 90.3473 80.1756C90.3473 80.1756 90.4193 64.6466 78.8813 59.9006C78.8813 59.9006 73.6483 59.2586 71.2513 59.9006C71.2513 59.9006 62.3993 64.4526 63.5683 76.2276Z" fill="var(--fill-0, #BFBCA9)"/>
<path id="Vector_11" d="M73.4222 116.498C73.4222 116.498 79.0812 115.117 81.8442 116.432C81.8442 116.432 87.9512 109.145 88.1372 94.7224C88.1372 94.7224 88.2922 85.5084 87.1742 81.6264C87.1742 81.6264 82.0412 75.4414 80.7912 72.1514C80.7912 72.1514 78.9492 82.1524 78.8172 82.7444C78.8172 82.7444 77.3042 87.4164 75.0672 83.7314C75.0672 83.7314 71.9742 76.8234 71.9092 72.6124C71.9092 72.6124 70.0672 74.3884 69.7372 74.6524C69.7372 74.6524 67.6982 81.3634 67.1062 82.4814C67.1062 82.4814 63.8162 103.339 73.4222 116.498Z" fill="var(--fill-0, #D8D5C8)"/>
<path id="Vector_12" d="M92.4193 71.7188L86.4013 72.0798C82.6693 80.0008 76.3573 79.3388 76.3573 79.3388C68.9943 78.9558 66.0773 72.2797 66.0773 72.2797L59.7233 71.7217C58.0143 75.9467 57.5303 79.6728 57.5303 79.6728C57.5303 79.6728 59.0023 93.1997 61.4823 103.301C66.9363 102.232 80.3163 100.27 93.4983 103.469C95.1913 95.9577 95.6263 88.6208 95.6263 88.6208C96.0733 81.8428 94.3303 75.9697 92.4193 71.7188Z" fill="var(--fill-0, #E6E6E6)"/>
<path id="Vector_13" d="M87.0897 70.1885C86.8997 70.1885 86.7137 70.2435 86.5527 70.3465C86.3927 70.4495 86.2657 70.5955 86.1867 70.7695C84.3127 74.8845 81.8417 76.7165 79.8507 77.5895C77.8597 78.4625 76.4267 78.3505 76.4267 78.3505L76.3867 78.3475H76.3477C69.9147 78.4135 66.2527 70.9005 66.2527 70.9005C66.1977 70.7825 66.1187 70.6765 66.0227 70.5895C65.9267 70.5015 65.8137 70.4345 65.6917 70.3905C65.5687 70.3465 65.4387 70.3275 65.3087 70.3335C65.1787 70.3395 65.0507 70.3715 64.9337 70.4275C64.6957 70.5395 64.5117 70.7415 64.4237 70.9885C64.3347 71.2365 64.3477 71.5095 64.4597 71.7465C64.4597 71.7465 68.4197 80.3625 76.3067 80.3265C76.3347 80.3285 78.2717 80.4455 80.6467 79.4045C83.0377 78.3565 85.9337 76.1105 87.9917 71.5905C88.0457 71.4715 88.0757 71.3435 88.0797 71.2135C88.0847 71.0835 88.0637 70.9545 88.0177 70.8315C87.9727 70.7095 87.9027 70.5985 87.8147 70.5025C87.7257 70.4075 87.6187 70.3315 87.4997 70.2775C87.3717 70.2185 87.2307 70.1885 87.0897 70.1885Z" fill="var(--fill-0, #005E5B)"/>
<path id="Vector_14" d="M61.1949 74.2734L58.5959 74.9644C57.7909 77.6824 57.3379 79.6734 57.3379 79.6734C57.3379 79.6734 58.9699 92.8934 61.3989 102.954L62.6189 102.421C62.6189 102.421 58.5659 82.7614 61.1949 74.2734ZM92.9339 75.5604C95.5619 84.0494 92.1669 102.558 92.1669 102.558L93.5629 103.169C95.2009 95.7644 95.6259 88.6214 95.6259 88.6214C95.9429 83.8224 95.4329 79.4804 94.2719 75.8434L92.9339 75.5604Z" fill="var(--fill-0, #007B7B)"/>
<path id="Vector_15" d="M76.0496 100.807C67.3296 100.976 61.1536 102.325 61.1536 102.325C61.0246 102.35 60.9016 102.401 60.7916 102.474C60.6816 102.548 60.5886 102.643 60.5156 102.753C60.4426 102.863 60.3936 102.987 60.3696 103.117C60.3446 103.246 60.3476 103.38 60.3756 103.508C60.4036 103.637 60.4566 103.759 60.5326 103.867C60.6086 103.975 60.7045 104.067 60.8165 104.137C60.9275 104.207 61.0526 104.255 61.1836 104.276C61.3126 104.297 61.4466 104.293 61.5746 104.262C61.5746 104.262 77.0616 100.917 93.3106 104.264C93.4386 104.29 93.5705 104.291 93.6975 104.267C93.8255 104.242 93.9476 104.192 94.0566 104.121C94.1646 104.049 94.2586 103.957 94.3316 103.849C94.4046 103.741 94.4556 103.62 94.4826 103.493C94.5086 103.365 94.5096 103.234 94.4846 103.106C94.4606 102.978 94.4105 102.856 94.3395 102.747C94.2675 102.639 94.1745 102.545 94.0675 102.472C93.9595 102.399 93.8385 102.348 93.7105 102.322C87.4305 101.028 81.2816 100.705 76.0496 100.806V100.807Z" fill="var(--fill-0, #005E5B)"/>
<path id="Vector_16" d="M71.3462 65.9671C71.3462 65.9671 65.2972 76.1931 53.9112 77.8861C53.9112 77.8861 48.9872 79.2191 42.8832 71.9361C42.8832 71.9361 36.5042 66.1771 38.4022 57.9711C38.4022 57.9711 36.3502 60.1761 36.4532 62.8441C36.4532 62.8441 36.5812 64.3061 35.2482 63.2541C35.2482 63.2541 29.8362 54.7911 37.1712 47.7641C37.1712 47.7641 35.5372 47.5841 34.4852 48.6721C34.4852 48.6721 33.2162 50.0861 33.0352 48.1641C33.0352 48.1641 32.9262 41.8901 41.3772 39.8591C41.3772 39.8591 36.9882 35.6151 41.8482 30.2481C41.8482 30.2481 43.0442 36.8121 51.1692 34.2371C51.1692 34.2371 49.6462 25.8961 57.4072 22.5591C57.4072 22.5591 57.6242 29.9581 62.8472 29.9581C62.8472 29.9581 69.8102 29.9581 78.4422 20.7461C78.4422 20.7461 79.3852 24.5901 78.1522 27.9271C78.1522 27.9271 81.5612 24.3001 82.0692 21.8341C82.0692 21.8341 85.1162 24.9531 84.8982 29.2321C84.8982 29.2321 94.0372 29.8851 99.9132 25.0981C99.9132 25.0981 101.291 29.0871 99.5502 33.0771C99.5502 33.0771 103.467 32.8591 105.716 28.6521C105.716 28.6521 108.617 31.5531 105.716 36.6311C105.716 36.6311 113.985 37.3561 114.855 45.3351C114.855 45.3351 115.056 46.9181 113.876 46.3541C113.876 46.3541 112.389 45.3531 110.901 45.2251C110.901 45.2251 115.363 48.8891 115 53.0971C115 53.0971 115.073 56.9411 111.446 58.1741C111.446 58.1741 113.695 63.7591 109.342 68.5471C109.342 68.5471 108.472 69.7441 107.856 68.1841C107.856 68.1841 107.783 67.6041 107.311 67.6401C107.311 67.6401 105.367 72.2151 101.304 74.3911C101.304 74.3911 96.5132 78.7901 90.6382 75.4531C90.6382 75.4531 85.9512 74.7491 82.6152 66.1901C82.6152 66.1901 81.1352 62.9501 77.5082 61.1361C77.5082 61.1361 74.4862 60.2501 71.3462 65.9671Z" fill="var(--fill-0, #004E54)"/>
<path id="Vector_17" d="M100.344 62.9958C94.579 65.3678 87.25 61.9637 83.974 55.3907C80.699 48.8177 82.718 41.5667 88.484 39.1937C94.249 36.8207 101.578 40.2258 104.853 46.7988C108.129 53.3718 106.11 60.6228 100.344 62.9958Z" fill="var(--fill-0, #004043)"/>
<path id="Vector_18" d="M54.3775 57.237C60.1435 59.61 67.4725 56.205 70.7475 49.632C74.0225 43.059 72.0035 35.808 66.2385 33.435C60.4725 31.062 53.1435 34.467 49.8685 41.04C46.5935 47.613 48.6125 54.864 54.3775 57.237Z" fill="var(--fill-0, #004043)"/>
<path id="Vector_19" d="M51.1422 63.2043C56.9082 65.5773 64.2372 62.1723 67.5122 55.5993C70.7872 49.0263 68.7682 41.7753 63.0032 39.4023C57.2372 37.0303 49.9082 40.4343 46.6332 47.0073C43.3582 53.5803 45.3772 60.8313 51.1422 63.2043Z" fill="var(--fill-0, #004043)"/>
<path id="Vector_20" d="M52.7674 59.9934C58.5334 62.3654 65.8624 58.9614 69.1374 52.3884C72.4124 45.8154 70.3934 38.5644 64.6284 36.1914C58.8624 33.8194 51.5334 37.2234 48.2584 43.7964C44.9834 50.3694 47.0014 57.6204 52.7674 59.9934Z" fill="var(--fill-0, #D8D5C8)"/>
<path id="Vector_21" d="M97.1067 57.0276C91.3407 59.4006 84.0117 55.9956 80.7367 49.4226C77.4617 42.8506 79.4807 35.5986 85.2457 33.2256C91.0117 30.8536 98.3407 34.2576 101.616 40.8306C104.891 47.4036 102.873 54.6556 97.1067 57.0276Z" fill="var(--fill-0, #004043)"/>
<path id="Vector_22" d="M99.0032 59.9928C93.2382 62.3648 85.9092 58.9608 82.6332 52.3878C79.3582 45.8148 81.3772 38.5638 87.1422 36.1908C92.9082 33.8178 100.237 37.2228 103.512 43.7958C106.787 50.3678 104.769 57.6198 99.0032 59.9928Z" fill="var(--fill-0, #D8D5C8)"/>
<path id="Vector_23" d="M57.0102 22.7393C49.6992 26.1853 51.1692 34.2383 51.1692 34.2383C43.0452 36.8133 41.8482 30.2483 41.8482 30.2483C36.9882 35.6163 41.3772 39.8593 41.3772 39.8593C32.9272 41.8903 33.0352 48.1653 33.0352 48.1653C33.2162 50.0873 34.4862 48.6723 34.4862 48.6723C35.5382 47.5843 37.1712 47.7653 37.1712 47.7653C29.8362 54.7913 35.2482 63.2543 35.2482 63.2543C36.5812 64.3063 36.4532 62.8443 36.4532 62.8443C36.3512 60.1773 38.4022 57.9713 38.4022 57.9713C36.5042 66.1783 42.4842 72.3363 42.4842 72.3363C48.9372 79.0703 53.9112 77.8863 53.9112 77.8863C65.2982 76.1943 71.3462 65.9683 71.3462 65.9683C72.6782 63.5433 74.3232 62.6843 75.7792 62.4953C75.5352 61.0663 75.1602 58.9493 75.0142 58.6583C74.7952 58.2193 73.9192 57.3433 72.7142 57.1243C71.5092 56.9053 70.3522 57.8223 70.3522 57.8223C70.3522 57.8223 68.4342 69.3803 57.6372 72.9223C45.5522 76.2233 39.8172 64.8473 39.8992 55.3973C39.8992 55.3973 37.9632 55.6293 37.3432 56.5593C37.3432 55.6293 37.4422 48.0323 41.3312 46.0603C41.3312 46.0603 38.5382 45.6773 37.4972 46.3893C37.4972 46.3893 39.4142 41.9533 44.0692 41.3503C44.0692 41.3503 42.5352 39.8163 42.7542 37.2423C42.7542 37.2423 49.6012 38.5023 52.9422 35.1613C52.9422 35.1613 50.5672 27.8763 57.0102 22.7393Z" fill="var(--fill-0, #003E43)"/>
<path id="Vector_24" d="M99.9122 25.0977C99.8942 25.1127 99.8752 25.1267 99.8562 25.1417L99.8512 25.1657C100.317 30.2587 97.2962 34.6637 97.2962 34.6637C104.014 35.2437 105.716 28.6567 105.717 28.6547L105.714 28.6527C103.466 32.8597 99.5492 33.0767 99.5492 33.0767C101.29 29.0877 99.9122 25.0977 99.9122 25.0977ZM105.723 36.6167C105.718 36.6197 105.684 36.6397 105.684 36.6397C112.147 39.0497 113.188 44.4717 113.243 44.7457C111.326 43.5957 108.215 44.8617 108.215 44.8617C112.707 49.1227 111.701 56.4807 111.701 56.4807C111.081 55.7837 109.299 56.1707 109.299 56.1707C111.313 60.8957 108.796 67.4017 108.796 67.4017C108.022 66.1627 105.814 65.6977 105.814 65.6977C100.181 75.9567 89.8262 73.7017 85.9712 65.1897C85.9712 65.1897 84.2272 60.6567 80.7592 57.5537C80.7592 57.5537 80.6042 57.0117 80.1392 56.7017C79.6752 56.3917 78.9362 56.3257 78.4722 57.1777C78.0072 58.0297 76.7312 58.3417 76.1112 59.8137C75.9792 60.1277 75.9062 60.4687 75.8682 60.8277C77.6052 60.7777 77.5072 61.1367 77.5072 61.1367C81.1342 62.9497 82.6142 66.1897 82.6142 66.1897C85.9512 74.7497 90.6372 75.4537 90.6372 75.4537C96.5122 78.7907 101.303 74.3917 101.303 74.3917C105.366 72.2157 107.31 67.6407 107.31 67.6407C107.782 67.6037 107.855 68.1847 107.855 68.1847C108.471 69.7437 109.342 68.5467 109.342 68.5467C113.694 63.7597 111.445 58.1747 111.445 58.1747C115.072 56.9417 115 53.0967 115 53.0967C115.362 48.8897 110.901 45.2257 110.901 45.2257C112.388 45.3537 113.875 46.3537 113.875 46.3537C115.055 46.9177 114.854 45.3357 114.854 45.3357C113.984 37.3567 105.715 36.6317 105.715 36.6317C105.717 36.6267 105.72 36.6217 105.723 36.6167Z" fill="var(--fill-0, #003E43)"/>
<path id="Vector_25" d="M69.5334 52.9688C69.5334 52.9688 71.0564 48.9068 74.1034 48.2898C74.1034 48.2898 76.0614 47.8548 77.7294 48.5438C77.7294 48.5438 81.2474 49.3778 82.4814 53.7668C82.4814 53.7668 82.8074 54.1658 82.2634 55.6528C82.2634 55.6528 78.0564 74.5118 77.8384 75.3828C77.8384 75.3828 77.2614 77.4838 76.0824 77.4328C76.0824 77.4328 74.6454 77.6128 74.1584 75.1248C74.1584 75.1248 70.0334 58.0978 69.8584 56.6848C68.8674 54.4018 69.5334 52.9688 69.5334 52.9688Z" fill="var(--fill-0, #FFB93E)"/>
<path id="Vector_26" d="M77.6343 52.3673C79.0043 53.3353 80.5083 53.5653 80.9923 52.8793C81.4763 52.1943 80.7583 50.8543 79.3873 49.8863C78.0173 48.9183 76.5143 48.6893 76.0303 49.3743C75.5453 50.0593 76.2643 51.3993 77.6343 52.3673Z" fill="var(--fill-0, #FFD28C)"/>
<path id="Vector_27" d="M63.8491 55.8802C59.5301 57.3772 54.8211 55.1042 53.3301 50.8032C51.8391 46.5022 54.1321 41.8022 58.4511 40.3052C62.7701 38.8082 67.4791 41.0812 68.9701 45.3822C70.4611 49.6832 68.1681 54.3832 63.8491 55.8802Z" fill="var(--fill-0, #FFB93E)"/>
<path id="Vector_28" d="M63.5222 54.941C59.7242 56.257 55.5822 54.258 54.2712 50.476C52.9602 46.694 54.9772 42.561 58.7742 41.244C62.5732 39.927 66.7141 41.927 68.0251 45.709C69.3361 49.491 67.3202 53.625 63.5222 54.941Z" fill="var(--fill-0, #E77B00)"/>
<path id="Vector_29" d="M63.0785 53.8464C59.8595 54.9624 56.3495 53.2684 55.2385 50.0624C54.1275 46.8574 55.8364 43.3544 59.0554 42.2384C62.2734 41.1234 65.7845 42.8174 66.8945 46.0224C68.0055 49.2274 66.2975 52.7304 63.0785 53.8464Z" fill="var(--fill-0, #1D1919)"/>
<path id="Vector_30" d="M65.5176 45.674C64.4846 46.032 63.3576 45.488 63.0006 44.459C62.6436 43.43 63.1926 42.305 64.2256 41.947C65.2596 41.589 66.3856 42.133 66.7426 43.162C67.0996 44.191 66.5506 45.316 65.5176 45.674Z" fill="var(--fill-0, white)"/>
<path id="Vector_31" d="M93.319 55.3602C89.042 56.8422 84.378 54.5912 82.902 50.3322C81.425 46.0732 83.696 41.4182 87.973 39.9362C92.25 38.4542 96.9141 40.7052 98.3901 44.9642C99.8661 49.2232 97.596 53.8772 93.319 55.3602Z" fill="var(--fill-0, #FFB93E)"/>
<path id="Vector_32" d="M92.9956 54.43C89.2346 55.733 85.1335 53.754 83.8345 50.008C82.5365 46.263 84.5336 42.17 88.2946 40.866C92.0556 39.562 96.1566 41.542 97.4546 45.287C98.7536 49.033 96.7566 53.126 92.9956 54.43Z" fill="var(--fill-0, #E77B00)"/>
<path id="Vector_33" d="M92.5552 53.3456C89.3672 54.4506 85.8922 52.7726 84.7922 49.5986C83.6912 46.4236 85.3832 42.9546 88.5712 41.8506C91.7582 40.7456 95.2342 42.4236 96.3342 45.5976C97.4352 48.7716 95.7432 52.2406 92.5552 53.3456Z" fill="var(--fill-0, #1D1919)"/>
<path id="Vector_34" d="M94.9707 45.2539C93.9477 45.6089 92.8317 45.0699 92.4777 44.0509C92.1247 43.0319 92.6687 41.9179 93.6917 41.5629C94.7147 41.2089 95.8308 41.7469 96.1838 42.7659C96.5378 43.7859 95.9937 44.8989 94.9707 45.2539Z" fill="var(--fill-0, white)"/>
<path id="Vector_35" d="M78.4139 20.7773C78.4029 20.7893 78.3919 20.8003 78.3799 20.8123C78.2939 21.2423 76.5469 29.6213 70.9619 31.7723C70.9619 31.7723 76.8869 31.4623 78.1639 27.8603C78.1779 27.8373 78.1889 27.8143 78.2009 27.7923C79.1859 24.9853 78.6759 21.8853 78.4989 21.0083C78.4509 20.8713 78.4259 20.8073 78.4139 20.7773Z" fill="var(--fill-0, #003E43)"/>
<path id="Vector_36" d="M69.5402 53.1266C69.5402 53.1266 71.1132 48.9306 74.2602 48.2946C74.2602 48.2946 76.2822 47.8446 78.0062 48.5566C78.0062 48.5566 81.6402 49.4186 82.9132 53.9506C82.9132 53.9506 83.2502 54.3626 82.6882 55.8986C82.6882 55.8986 78.3432 75.3776 78.1182 76.2766C78.1182 76.2766 77.5222 78.4476 76.3042 78.3946C76.3042 78.3946 74.8212 78.5796 74.3172 76.0106C74.3172 76.0106 70.0572 58.4236 69.8762 56.9646C68.8532 54.6066 69.5402 53.1266 69.5402 53.1266Z" fill="var(--fill-0, #FFB93E)"/>
<path id="Vector_37" d="M80.5955 57.9547C80.2205 63.2737 77.6365 70.8777 77.6365 70.8777C75.9505 75.3357 74.6765 70.8777 74.6765 70.8777C74.2645 70.1297 71.3055 58.1797 71.3055 58.1797C71.3055 58.1797 70.9235 57.0257 72.0085 57.5047C72.0085 57.5047 75.8705 60.6437 79.6585 57.3927C79.6585 57.3927 80.4825 56.6437 80.5955 57.9547Z" fill="var(--fill-0, #5B1010)"/>
<path id="Vector_38" d="M76.3645 61.0947C74.9965 61.0997 73.6545 61.7007 72.4795 62.8347C73.3605 66.3027 74.4365 70.4397 74.6775 70.8777C74.6775 70.8777 75.9515 75.3357 77.6375 70.8777C77.6375 70.8777 79.0215 66.7957 79.9115 62.5217C78.8175 61.5867 77.6005 61.0977 76.3645 61.0947Z" fill="var(--fill-0, #B43838)"/>
</g>
</svg>
